<svg xmlns="http://www.w3.org/2000/svg" xmlns:xlink="http://www.w3.org/1999/xlink" width="521" zoomAndPan="magnify" viewBox="0 0 390.75 169.5" height="226" preserveAspectRatio="xMidYMid meet" version="1.0"><defs><g/><clipPath id="84d96cdfdb"><path d="M 80 63.265625 L 147.449219 63.265625 L 147.449219 92 L 80 92 Z M 80 63.265625 " clip-rule="nonzero"/></clipPath><clipPath id="d72b53ed40"><path d="M 74.167969 91 L 141 91 L 141 120.101562 L 74.167969 120.101562 Z M 74.167969 91 " clip-rule="nonzero"/></clipPath></defs><g clip-path="url(#84d96cdfdb)"><path fill="#00adef" d="M 80.972656 91.679688 L 91.976562 91.679688 L 100.640625 80.75 L 89.636719 80.75 Z M 136.445312 63.265625 L 113.417969 91.679688 L 124.421875 91.679688 L 147.445312 63.265625 Z M 114.398438 70.40625 L 97.195312 91.679688 L 108.199219 91.679688 L 125.398438 70.40625 L 114.398438 70.40625 " fill-opacity="1" fill-rule="nonzero"/></g><g clip-path="url(#d72b53ed40)"><path fill="#4f4c4c" d="M 140.644531 91.679688 L 129.640625 91.679688 L 120.976562 102.613281 L 131.980469 102.613281 Z M 85.171875 120.097656 L 108.199219 91.679688 L 97.195312 91.679688 L 74.167969 120.097656 Z M 107.21875 112.957031 L 124.421875 91.679688 L 113.417969 91.679688 L 96.21875 112.957031 L 107.21875 112.957031 " fill-opacity="1" fill-rule="nonzero"/></g><g fill="#00adef" fill-opacity="1"><g transform="translate(151.525042, 86.867377)"><g><path d="M 0.765625 -23.40625 L 17.703125 -23.40625 L 17.703125 -18.859375 L 11.71875 -18.859375 L 11.71875 0 L 6.734375 0 L 6.734375 -18.859375 L 0.765625 -18.859375 Z M 0.765625 -23.40625 "/></g></g></g><g fill="#00adef" fill-opacity="1"><g transform="translate(169.321459, 86.867377)"><g><path d="M 9.578125 -16.84375 C 10.804688 -16.84375 11.925781 -16.59375 12.9375 -16.09375 C 13.945312 -15.601562 14.816406 -14.953125 15.546875 -14.140625 C 16.273438 -13.335938 16.835938 -12.414062 17.234375 -11.375 C 17.628906 -10.332031 17.828125 -9.257812 17.828125 -8.15625 C 17.828125 -7.5 17.738281 -6.796875 17.5625 -6.046875 L 5.875 -6.046875 C 6.3125 -5.296875 6.9375 -4.660156 7.75 -4.140625 C 8.570312 -3.628906 9.457031 -3.375 10.40625 -3.375 C 11.34375 -3.375 12.171875 -3.445312 12.890625 -3.59375 C 13.609375 -3.75 14.285156 -3.945312 14.921875 -4.1875 L 16.4375 -1.390625 C 15.625 -0.816406 14.691406 -0.375 13.640625 -0.0625 C 12.597656 0.238281 11.484375 0.390625 10.296875 0.390625 C 9.003906 0.390625 7.796875 0.164062 6.671875 -0.28125 C 5.546875 -0.726562 4.5625 -1.335938 3.71875 -2.109375 C 2.882812 -2.878906 2.226562 -3.789062 1.75 -4.84375 C 1.269531 -5.90625 1.03125 -7.03125 1.03125 -8.21875 C 1.03125 -9.382812 1.25 -10.488281 1.6875 -11.53125 C 2.125 -12.582031 2.734375 -13.5 3.515625 -14.28125 C 4.296875 -15.0625 5.203125 -15.679688 6.234375 -16.140625 C 7.273438 -16.609375 8.390625 -16.84375 9.578125 -16.84375 Z M 13.3125 -9.578125 C 13.039062 -10.523438 12.5625 -11.296875 11.875 -11.890625 C 11.195312 -12.484375 10.429688 -12.78125 9.578125 -12.78125 C 8.691406 -12.78125 7.890625 -12.484375 7.171875 -11.890625 C 6.460938 -11.296875 5.976562 -10.523438 5.71875 -9.578125 Z M 13.3125 -9.578125 "/></g></g></g><g fill="#00adef" fill-opacity="1"><g transform="translate(188.306507, 86.867377)"><g><path d="M 9.546875 -12.78125 C 8.992188 -12.78125 8.472656 -12.648438 7.984375 -12.390625 C 7.503906 -12.140625 7.082031 -11.800781 6.71875 -11.375 C 6.351562 -10.945312 6.066406 -10.445312 5.859375 -9.875 C 5.648438 -9.300781 5.546875 -8.679688 5.546875 -8.015625 C 5.546875 -7.359375 5.648438 -6.757812 5.859375 -6.21875 C 6.066406 -5.6875 6.351562 -5.226562 6.71875 -4.84375 C 7.082031 -4.457031 7.503906 -4.148438 7.984375 -3.921875 C 8.472656 -3.703125 8.992188 -3.59375 9.546875 -3.59375 C 10.222656 -3.59375 10.882812 -3.753906 11.53125 -4.078125 C 12.1875 -4.398438 12.742188 -4.847656 13.203125 -5.421875 L 16.015625 -2.640625 C 15.242188 -1.710938 14.296875 -0.972656 13.171875 -0.421875 C 12.046875 0.117188 10.835938 0.390625 9.546875 0.390625 C 8.359375 0.390625 7.242188 0.164062 6.203125 -0.28125 C 5.171875 -0.726562 4.269531 -1.34375 3.5 -2.125 C 2.726562 -2.90625 2.113281 -3.816406 1.65625 -4.859375 C 1.207031 -5.910156 0.984375 -7.03125 0.984375 -8.21875 C 0.984375 -9.40625 1.207031 -10.519531 1.65625 -11.5625 C 2.113281 -12.613281 2.726562 -13.53125 3.5 -14.3125 C 4.269531 -15.09375 5.171875 -15.707031 6.203125 -16.15625 C 7.242188 -16.613281 8.359375 -16.84375 9.546875 -16.84375 C 10.890625 -16.84375 12.128906 -16.554688 13.265625 -15.984375 C 14.410156 -15.410156 15.378906 -14.628906 16.171875 -13.640625 L 13.015625 -11.1875 C 12.367188 -11.78125 11.785156 -12.191406 11.265625 -12.421875 C 10.753906 -12.660156 10.179688 -12.78125 9.546875 -12.78125 Z M 9.546875 -12.78125 "/></g></g></g><g fill="#00adef" fill-opacity="1"><g transform="translate(204.650155, 86.867377)"><g><path d="M 10 -16.375 C 10.613281 -16.375 11.296875 -16.285156 12.046875 -16.109375 C 12.796875 -15.929688 13.5 -15.597656 14.15625 -15.109375 C 14.820312 -14.628906 15.378906 -13.957031 15.828125 -13.09375 C 16.285156 -12.238281 16.515625 -11.128906 16.515625 -9.765625 L 16.515625 0 L 11.921875 0 L 11.921875 -9.609375 C 11.921875 -10.109375 11.835938 -10.535156 11.671875 -10.890625 C 11.503906 -11.242188 11.28125 -11.523438 11 -11.734375 C 10.726562 -11.941406 10.414062 -12.09375 10.0625 -12.1875 C 9.71875 -12.289062 9.367188 -12.34375 9.015625 -12.34375 C 8.722656 -12.34375 8.40625 -12.289062 8.0625 -12.1875 C 7.726562 -12.09375 7.410156 -11.9375 7.109375 -11.71875 C 6.816406 -11.5 6.570312 -11.210938 6.375 -10.859375 C 6.175781 -10.503906 6.078125 -10.085938 6.078125 -9.609375 L 6.078125 0 L 1.515625 0 L 1.515625 -16.375 L 5.421875 -16.375 L 6.078125 -15.125 C 6.609375 -15.5 7.203125 -15.800781 7.859375 -16.03125 C 8.515625 -16.257812 9.226562 -16.375 10 -16.375 Z M 10 -16.375 "/></g></g></g><g fill="#00adef" fill-opacity="1"><g transform="translate(221.85226, 86.867377)"><g><path d="M 9.546875 -16.84375 C 10.710938 -16.84375 11.8125 -16.613281 12.84375 -16.15625 C 13.875 -15.707031 14.773438 -15.09375 15.546875 -14.3125 C 16.316406 -13.53125 16.925781 -12.613281 17.375 -11.5625 C 17.832031 -10.519531 18.0625 -9.40625 18.0625 -8.21875 C 18.0625 -7.03125 17.832031 -5.910156 17.375 -4.859375 C 16.925781 -3.816406 16.316406 -2.90625 15.546875 -2.125 C 14.773438 -1.34375 13.875 -0.726562 12.84375 -0.28125 C 11.8125 0.164062 10.710938 0.390625 9.546875 0.390625 C 8.359375 0.390625 7.242188 0.164062 6.203125 -0.28125 C 5.171875 -0.726562 4.269531 -1.34375 3.5 -2.125 C 2.726562 -2.90625 2.113281 -3.816406 1.65625 -4.859375 C 1.207031 -5.910156 0.984375 -7.03125 0.984375 -8.21875 C 0.984375 -9.40625 1.207031 -10.519531 1.65625 -11.5625 C 2.113281 -12.613281 2.726562 -13.53125 3.5 -14.3125 C 4.269531 -15.09375 5.171875 -15.707031 6.203125 -16.15625 C 7.242188 -16.613281 8.359375 -16.84375 9.546875 -16.84375 Z M 9.546875 -3.59375 C 10.085938 -3.59375 10.59375 -3.703125 11.0625 -3.921875 C 11.539062 -4.148438 11.960938 -4.457031 12.328125 -4.84375 C 12.691406 -5.226562 12.976562 -5.6875 13.1875 -6.21875 C 13.394531 -6.757812 13.5 -7.359375 13.5 -8.015625 C 13.5 -8.679688 13.394531 -9.300781 13.1875 -9.875 C 12.976562 -10.445312 12.691406 -10.945312 12.328125 -11.375 C 11.960938 -11.800781 11.539062 -12.140625 11.0625 -12.390625 C 10.59375 -12.648438 10.085938 -12.78125 9.546875 -12.78125 C 8.992188 -12.78125 8.472656 -12.648438 7.984375 -12.390625 C 7.503906 -12.140625 7.082031 -11.800781 6.71875 -11.375 C 6.351562 -10.945312 6.066406 -10.445312 5.859375 -9.875 C 5.648438 -9.300781 5.546875 -8.679688 5.546875 -8.015625 C 5.546875 -7.359375 5.648438 -6.757812 5.859375 -6.21875 C 6.066406 -5.6875 6.351562 -5.226562 6.71875 -4.84375 C 7.082031 -4.457031 7.503906 -4.148438 7.984375 -3.921875 C 8.472656 -3.703125 8.992188 -3.59375 9.546875 -3.59375 Z M 9.546875 -3.59375 "/></g></g></g><g fill="#4f4c4c" fill-opacity="1"><g transform="translate(143.419014, 113.865694)"><g><path d="M 11.03125 -23.40625 C 12.71875 -23.40625 14.210938 -23.097656 15.515625 -22.484375 C 16.816406 -21.867188 17.898438 -21.03125 18.765625 -19.96875 C 19.640625 -18.914062 20.300781 -17.671875 20.75 -16.234375 C 21.195312 -14.804688 21.421875 -13.289062 21.421875 -11.6875 C 21.421875 -10.0625 21.179688 -8.535156 20.703125 -7.109375 C 20.234375 -5.691406 19.582031 -4.453125 18.75 -3.390625 C 17.914062 -2.335938 16.925781 -1.507812 15.78125 -0.90625 C 14.632812 -0.300781 13.390625 0 12.046875 0 L 1.578125 0 L 1.578125 -23.40625 Z M 11.0625 -4.515625 C 12.007812 -4.515625 12.816406 -4.707031 13.484375 -5.09375 C 14.160156 -5.476562 14.71875 -6 15.15625 -6.65625 C 15.59375 -7.320312 15.914062 -8.082031 16.125 -8.9375 C 16.332031 -9.800781 16.4375 -10.707031 16.4375 -11.65625 C 16.4375 -12.601562 16.335938 -13.507812 16.140625 -14.375 C 15.941406 -15.25 15.625 -16.015625 15.1875 -16.671875 C 14.75 -17.328125 14.1875 -17.851562 13.5 -18.25 C 12.820312 -18.65625 12.007812 -18.859375 11.0625 -18.859375 L 6.609375 -18.859375 L 6.609375 -4.515625 Z M 11.0625 -4.515625 "/></g></g></g><g fill="#4f4c4c" fill-opacity="1"><g transform="translate(165.309599, 113.865694)"><g><path d="M 9.578125 -16.84375 C 10.804688 -16.84375 11.925781 -16.59375 12.9375 -16.09375 C 13.945312 -15.601562 14.816406 -14.953125 15.546875 -14.140625 C 16.273438 -13.335938 16.835938 -12.414062 17.234375 -11.375 C 17.628906 -10.332031 17.828125 -9.257812 17.828125 -8.15625 C 17.828125 -7.5 17.738281 -6.796875 17.5625 -6.046875 L 5.875 -6.046875 C 6.3125 -5.296875 6.9375 -4.660156 7.75 -4.140625 C 8.570312 -3.628906 9.457031 -3.375 10.40625 -3.375 C 11.34375 -3.375 12.171875 -3.445312 12.890625 -3.59375 C 13.609375 -3.75 14.285156 -3.945312 14.921875 -4.1875 L 16.4375 -1.390625 C 15.625 -0.816406 14.691406 -0.375 13.640625 -0.0625 C 12.597656 0.238281 11.484375 0.390625 10.296875 0.390625 C 9.003906 0.390625 7.796875 0.164062 6.671875 -0.28125 C 5.546875 -0.726562 4.5625 -1.335938 3.71875 -2.109375 C 2.882812 -2.878906 2.226562 -3.789062 1.75 -4.84375 C 1.269531 -5.90625 1.03125 -7.03125 1.03125 -8.21875 C 1.03125 -9.382812 1.25 -10.488281 1.6875 -11.53125 C 2.125 -12.582031 2.734375 -13.5 3.515625 -14.28125 C 4.296875 -15.0625 5.203125 -15.679688 6.234375 -16.140625 C 7.273438 -16.609375 8.390625 -16.84375 9.578125 -16.84375 Z M 13.3125 -9.578125 C 13.039062 -10.523438 12.5625 -11.296875 11.875 -11.890625 C 11.195312 -12.484375 10.429688 -12.78125 9.578125 -12.78125 C 8.691406 -12.78125 7.890625 -12.484375 7.171875 -11.890625 C 6.460938 -11.296875 5.976562 -10.523438 5.71875 -9.578125 Z M 13.3125 -9.578125 "/></g></g></g><g fill="#4f4c4c" fill-opacity="1"><g transform="translate(184.294647, 113.865694)"><g><path d="M 11.890625 -8.578125 C 13.097656 -7.722656 13.703125 -6.503906 13.703125 -4.921875 C 13.703125 -4.191406 13.53125 -3.507812 13.1875 -2.875 C 12.84375 -2.238281 12.375 -1.675781 11.78125 -1.1875 C 11.1875 -0.707031 10.492188 -0.328125 9.703125 -0.046875 C 8.910156 0.222656 8.066406 0.359375 7.171875 0.359375 C 6.484375 0.359375 5.8125 0.269531 5.15625 0.09375 C 4.507812 -0.0820312 3.910156 -0.320312 3.359375 -0.625 C 2.816406 -0.9375 2.34375 -1.304688 1.9375 -1.734375 C 1.53125 -2.160156 1.226562 -2.640625 1.03125 -3.171875 C 1.53125 -3.410156 2.085938 -3.675781 2.703125 -3.96875 C 3.316406 -4.269531 3.859375 -4.539062 4.328125 -4.78125 C 4.523438 -4.457031 4.832031 -4.15625 5.25 -3.875 C 5.664062 -3.601562 6.238281 -3.46875 6.96875 -3.46875 C 7.71875 -3.46875 8.265625 -3.640625 8.609375 -3.984375 C 8.960938 -4.335938 9.140625 -4.671875 9.140625 -4.984375 C 9.140625 -5.203125 9.019531 -5.40625 8.78125 -5.59375 C 8.539062 -5.78125 8.265625 -5.929688 7.953125 -6.046875 C 7.515625 -6.222656 7.148438 -6.316406 6.859375 -6.328125 C 6.578125 -6.335938 6.25 -6.394531 5.875 -6.5 C 4.6875 -6.789062 3.78125 -7.171875 3.15625 -7.640625 C 2.53125 -8.117188 2.070312 -8.597656 1.78125 -9.078125 C 1.5 -9.566406 1.335938 -10.03125 1.296875 -10.46875 C 1.265625 -10.90625 1.25 -11.253906 1.25 -11.515625 C 1.25 -12.222656 1.398438 -12.894531 1.703125 -13.53125 C 2.015625 -14.175781 2.441406 -14.734375 2.984375 -15.203125 C 3.523438 -15.671875 4.148438 -16.046875 4.859375 -16.328125 C 5.578125 -16.617188 6.347656 -16.765625 7.171875 -16.765625 C 7.847656 -16.765625 8.492188 -16.664062 9.109375 -16.46875 C 9.722656 -16.269531 10.285156 -15.992188 10.796875 -15.640625 C 11.304688 -15.296875 11.738281 -14.878906 12.09375 -14.390625 C 12.457031 -13.910156 12.726562 -13.375 12.90625 -12.78125 L 9.375 -11.59375 C 9.238281 -11.988281 8.96875 -12.304688 8.5625 -12.546875 C 8.15625 -12.785156 7.722656 -12.90625 7.265625 -12.90625 C 6.796875 -12.90625 6.421875 -12.75 6.140625 -12.4375 C 5.859375 -12.132812 5.71875 -11.828125 5.71875 -11.515625 C 5.71875 -11.148438 5.851562 -10.859375 6.125 -10.640625 C 6.394531 -10.429688 6.695312 -10.285156 7.03125 -10.203125 C 7.269531 -10.160156 7.503906 -10.117188 7.734375 -10.078125 C 7.972656 -10.046875 8.203125 -10.007812 8.421875 -9.96875 C 9.191406 -9.789062 9.859375 -9.59375 10.421875 -9.375 C 10.984375 -9.15625 11.472656 -8.890625 11.890625 -8.578125 Z M 11.890625 -8.578125 "/></g></g></g><g fill="#4f4c4c" fill-opacity="1"><g transform="translate(198.26104, 113.865694)"><g><path d="M 10.96875 -16.84375 C 12.132812 -16.84375 13.210938 -16.613281 14.203125 -16.15625 C 15.191406 -15.707031 16.039062 -15.09375 16.75 -14.3125 C 17.46875 -13.53125 18.03125 -12.613281 18.4375 -11.5625 C 18.84375 -10.519531 19.046875 -9.40625 19.046875 -8.21875 C 19.046875 -7.03125 18.84375 -5.910156 18.4375 -4.859375 C 18.03125 -3.816406 17.46875 -2.90625 16.75 -2.125 C 16.039062 -1.34375 15.191406 -0.726562 14.203125 -0.28125 C 13.210938 0.164062 12.132812 0.390625 10.96875 0.390625 C 10.019531 0.390625 9.09375 0.222656 8.1875 -0.109375 C 7.28125 -0.453125 6.578125 -0.890625 6.078125 -1.421875 L 6.078125 6.53125 L 1.515625 6.53125 L 1.515625 -16.375 L 5.421875 -16.375 L 6.078125 -15.25 C 6.710938 -15.820312 7.425781 -16.226562 8.21875 -16.46875 C 9.007812 -16.71875 9.925781 -16.84375 10.96875 -16.84375 Z M 10.359375 -3.671875 C 10.960938 -3.671875 11.519531 -3.789062 12.03125 -4.03125 C 12.550781 -4.269531 13.003906 -4.59375 13.390625 -5 C 13.773438 -5.40625 14.082031 -5.882812 14.3125 -6.4375 C 14.539062 -6.988281 14.65625 -7.582031 14.65625 -8.21875 C 14.65625 -8.832031 14.539062 -9.421875 14.3125 -9.984375 C 14.082031 -10.546875 13.773438 -11.03125 13.390625 -11.4375 C 13.003906 -11.84375 12.550781 -12.164062 12.03125 -12.40625 C 11.519531 -12.65625 10.960938 -12.78125 10.359375 -12.78125 C 9.765625 -12.78125 9.207031 -12.695312 8.6875 -12.53125 C 8.175781 -12.363281 7.726562 -12.097656 7.34375 -11.734375 C 6.957031 -11.367188 6.65625 -10.894531 6.4375 -10.3125 C 6.21875 -9.726562 6.109375 -9.03125 6.109375 -8.21875 C 6.109375 -7.445312 6.21875 -6.78125 6.4375 -6.21875 C 6.65625 -5.65625 6.957031 -5.179688 7.34375 -4.796875 C 7.726562 -4.410156 8.175781 -4.125 8.6875 -3.9375 C 9.207031 -3.757812 9.765625 -3.671875 10.359375 -3.671875 Z M 10.359375 -3.671875 "/></g></g></g><g fill="#4f4c4c" fill-opacity="1"><g transform="translate(217.114012, 113.865694)"><g><path d="M 9.578125 -16.84375 C 10.804688 -16.84375 11.925781 -16.59375 12.9375 -16.09375 C 13.945312 -15.601562 14.816406 -14.953125 15.546875 -14.140625 C 16.273438 -13.335938 16.835938 -12.414062 17.234375 -11.375 C 17.628906 -10.332031 17.828125 -9.257812 17.828125 -8.15625 C 17.828125 -7.5 17.738281 -6.796875 17.5625 -6.046875 L 5.875 -6.046875 C 6.3125 -5.296875 6.9375 -4.660156 7.75 -4.140625 C 8.570312 -3.628906 9.457031 -3.375 10.40625 -3.375 C 11.34375 -3.375 12.171875 -3.445312 12.890625 -3.59375 C 13.609375 -3.75 14.285156 -3.945312 14.921875 -4.1875 L 16.4375 -1.390625 C 15.625 -0.816406 14.691406 -0.375 13.640625 -0.0625 C 12.597656 0.238281 11.484375 0.390625 10.296875 0.390625 C 9.003906 0.390625 7.796875 0.164062 6.671875 -0.28125 C 5.546875 -0.726562 4.5625 -1.335938 3.71875 -2.109375 C 2.882812 -2.878906 2.226562 -3.789062 1.75 -4.84375 C 1.269531 -5.90625 1.03125 -7.03125 1.03125 -8.21875 C 1.03125 -9.382812 1.25 -10.488281 1.6875 -11.53125 C 2.125 -12.582031 2.734375 -13.5 3.515625 -14.28125 C 4.296875 -15.0625 5.203125 -15.679688 6.234375 -16.140625 C 7.273438 -16.609375 8.390625 -16.84375 9.578125 -16.84375 Z M 13.3125 -9.578125 C 13.039062 -10.523438 12.5625 -11.296875 11.875 -11.890625 C 11.195312 -12.484375 10.429688 -12.78125 9.578125 -12.78125 C 8.691406 -12.78125 7.890625 -12.484375 7.171875 -11.890625 C 6.460938 -11.296875 5.976562 -10.523438 5.71875 -9.578125 Z M 13.3125 -9.578125 "/></g></g></g><g fill="#4f4c4c" fill-opacity="1"><g transform="translate(236.09906, 113.865694)"><g><path d="M 14.328125 -16.375 L 18.21875 -16.375 L 18.21875 -5.546875 C 18.21875 -4.296875 18.203125 -3.175781 18.171875 -2.1875 C 18.140625 -1.207031 18.054688 -0.328125 17.921875 0.453125 C 17.796875 1.234375 17.582031 1.929688 17.28125 2.546875 C 16.988281 3.160156 16.578125 3.734375 16.046875 4.265625 C 15.078125 5.203125 13.992188 5.847656 12.796875 6.203125 C 11.597656 6.554688 10.335938 6.734375 9.015625 6.734375 C 7.890625 6.734375 6.832031 6.597656 5.84375 6.328125 C 4.851562 6.066406 3.960938 5.707031 3.171875 5.25 L 3.171875 0.984375 C 3.367188 1.296875 3.648438 1.570312 4.015625 1.8125 C 4.378906 2.050781 4.796875 2.257812 5.265625 2.4375 C 5.734375 2.613281 6.238281 2.75 6.78125 2.84375 C 7.320312 2.945312 7.867188 3 8.421875 3 C 9.148438 3 9.832031 2.90625 10.46875 2.71875 C 11.101562 2.53125 11.65625 2.226562 12.125 1.8125 C 12.601562 1.394531 12.976562 0.875 13.25 0.25 C 13.53125 -0.375 13.671875 -1.140625 13.671875 -2.046875 L 13.671875 -2.375 C 13.035156 -1.800781 12.296875 -1.34375 11.453125 -1 C 10.617188 -0.664062 9.707031 -0.5 8.71875 -0.5 C 7.613281 -0.5 6.59375 -0.710938 5.65625 -1.140625 C 4.726562 -1.566406 3.921875 -2.148438 3.234375 -2.890625 C 2.554688 -3.628906 2.023438 -4.5 1.640625 -5.5 C 1.253906 -6.5 1.0625 -7.5625 1.0625 -8.6875 C 1.0625 -9.800781 1.253906 -10.851562 1.640625 -11.84375 C 2.023438 -12.84375 2.554688 -13.707031 3.234375 -14.4375 C 3.921875 -15.175781 4.726562 -15.757812 5.65625 -16.1875 C 6.59375 -16.625 7.613281 -16.84375 8.71875 -16.84375 C 9.75 -16.84375 10.679688 -16.703125 11.515625 -16.421875 C 12.359375 -16.148438 13.078125 -15.71875 13.671875 -15.125 Z M 9.640625 -4.5625 C 10.347656 -4.5625 10.953125 -4.6875 11.453125 -4.9375 C 11.960938 -5.1875 12.378906 -5.507812 12.703125 -5.90625 C 13.035156 -6.300781 13.28125 -6.738281 13.4375 -7.21875 C 13.59375 -7.707031 13.671875 -8.1875 13.671875 -8.65625 C 13.671875 -9.15625 13.585938 -9.648438 13.421875 -10.140625 C 13.253906 -10.640625 13.003906 -11.082031 12.671875 -11.46875 C 12.347656 -11.851562 11.929688 -12.164062 11.421875 -12.40625 C 10.921875 -12.65625 10.328125 -12.78125 9.640625 -12.78125 C 9.066406 -12.78125 8.535156 -12.664062 8.046875 -12.4375 C 7.566406 -12.21875 7.144531 -11.921875 6.78125 -11.546875 C 6.414062 -11.179688 6.128906 -10.75 5.921875 -10.25 C 5.710938 -9.757812 5.609375 -9.226562 5.609375 -8.65625 C 5.609375 -8.082031 5.710938 -7.546875 5.921875 -7.046875 C 6.128906 -6.554688 6.414062 -6.125 6.78125 -5.75 C 7.144531 -5.375 7.566406 -5.082031 8.046875 -4.875 C 8.535156 -4.664062 9.066406 -4.5625 9.640625 -4.5625 Z M 9.640625 -4.5625 "/></g></g></g><g fill="#4f4c4c" fill-opacity="1"><g transform="translate(255.018069, 113.865694)"><g><path d="M 11.859375 -16.375 L 16.40625 -16.375 L 16.40625 0 L 12.515625 0 L 11.859375 -1.25 C 11.328125 -0.875 10.722656 -0.570312 10.046875 -0.34375 C 9.378906 -0.113281 8.660156 0 7.890625 0 C 7.296875 0 6.617188 -0.0859375 5.859375 -0.265625 C 5.097656 -0.441406 4.382812 -0.769531 3.71875 -1.25 C 3.0625 -1.738281 2.507812 -2.410156 2.0625 -3.265625 C 1.613281 -4.128906 1.390625 -5.242188 1.390625 -6.609375 L 1.390625 -16.375 L 5.96875 -16.375 L 5.96875 -6.765625 C 5.96875 -6.265625 6.050781 -5.835938 6.21875 -5.484375 C 6.382812 -5.128906 6.601562 -4.847656 6.875 -4.640625 C 7.15625 -4.429688 7.472656 -4.273438 7.828125 -4.171875 C 8.179688 -4.078125 8.546875 -4.03125 8.921875 -4.03125 C 9.203125 -4.03125 9.507812 -4.078125 9.84375 -4.171875 C 10.1875 -4.273438 10.507812 -4.4375 10.8125 -4.65625 C 11.113281 -4.875 11.363281 -5.160156 11.5625 -5.515625 C 11.757812 -5.867188 11.859375 -6.285156 11.859375 -6.765625 Z M 11.859375 -16.375 "/></g></g></g><g fill="#4f4c4c" fill-opacity="1"><g transform="translate(272.286205, 113.865694)"><g><path d="M 9.578125 -16.84375 C 10.804688 -16.84375 11.925781 -16.59375 12.9375 -16.09375 C 13.945312 -15.601562 14.816406 -14.953125 15.546875 -14.140625 C 16.273438 -13.335938 16.835938 -12.414062 17.234375 -11.375 C 17.628906 -10.332031 17.828125 -9.257812 17.828125 -8.15625 C 17.828125 -7.5 17.738281 -6.796875 17.5625 -6.046875 L 5.875 -6.046875 C 6.3125 -5.296875 6.9375 -4.660156 7.75 -4.140625 C 8.570312 -3.628906 9.457031 -3.375 10.40625 -3.375 C 11.34375 -3.375 12.171875 -3.445312 12.890625 -3.59375 C 13.609375 -3.75 14.285156 -3.945312 14.921875 -4.1875 L 16.4375 -1.390625 C 15.625 -0.816406 14.691406 -0.375 13.640625 -0.0625 C 12.597656 0.238281 11.484375 0.390625 10.296875 0.390625 C 9.003906 0.390625 7.796875 0.164062 6.671875 -0.28125 C 5.546875 -0.726562 4.5625 -1.335938 3.71875 -2.109375 C 2.882812 -2.878906 2.226562 -3.789062 1.75 -4.84375 C 1.269531 -5.90625 1.03125 -7.03125 1.03125 -8.21875 C 1.03125 -9.382812 1.25 -10.488281 1.6875 -11.53125 C 2.125 -12.582031 2.734375 -13.5 3.515625 -14.28125 C 4.296875 -15.0625 5.203125 -15.679688 6.234375 -16.140625 C 7.273438 -16.609375 8.390625 -16.84375 9.578125 -16.84375 Z M 13.3125 -9.578125 C 13.039062 -10.523438 12.5625 -11.296875 11.875 -11.890625 C 11.195312 -12.484375 10.429688 -12.78125 9.578125 -12.78125 C 8.691406 -12.78125 7.890625 -12.484375 7.171875 -11.890625 C 6.460938 -11.296875 5.976562 -10.523438 5.71875 -9.578125 Z M 13.3125 -9.578125 "/></g></g></g></svg>